<svg width="82" height="68" viewBox="0 0 82 68" fill="none" xmlns="http://www.w3.org/2000/svg">
<g clip-path="url(#clip0_475_3708)">
<path d="M38.3773 54.3392L13.5815 29.4486L8.3271 34.7231L33.1229 59.6137L38.3773 54.3392Z" fill="#B36F50"/>
<path d="M24.5633 51.0234L16.8839 43.3146L2.96149 57.2902L10.641 64.999L24.5633 51.0234Z" fill="#6D3D39"/>
<path d="M67.6788 7.97363L62.4068 2.68152L57.2535 7.85456L62.5254 13.1467L67.6788 7.97363Z" fill="#B3B3B3"/>
<path d="M67.7413 13.1986L62.3551 7.79187L25.7765 44.5103L31.1627 49.9171L67.7413 13.1986Z" fill="#B3B3B3"/>
<path d="M62.4697 7.90955L56.4026 1.81921L21.243 37.1132L27.3102 43.2035L62.4697 7.90955Z" fill="#D7D9D9"/>
<path d="M56.8739 8.23205L53.8425 5.18909L43.0789 15.9938L46.1103 19.0368L56.8739 8.23205Z" fill="white"/>
<path d="M43.7448 21.4014L40.7134 18.3584L37.6821 21.4014L40.7134 24.4443L43.7448 21.4014Z" fill="white"/>
<path d="M19.4034 35.263L13.5942 29.4316L10.9598 32.076L22.1558 43.3147L24.7901 40.6703L22.0377 37.9074L57.1353 2.67566L54.501 0.03125L19.4034 35.263Z" fill="#272084"/>
<path d="M14.2466 45.9591L5.61041 54.6283L8.24475 57.2727L19.4407 46.0402L19.5152 45.9591L8.32552 34.7203L5.68497 37.371L14.2466 45.9591Z" fill="#272084"/>
<path d="M8.32659 29.4307L5.69061 32.0768L8.32659 34.7228L10.9626 32.0768L8.32659 29.4307Z" fill="#272084"/>
<path d="M59.7723 0.0249638L57.1363 2.67102L59.7723 5.31708L62.4083 2.67102L59.7723 0.0249638Z" fill="#272084"/>
<path d="M32.5813 48.4913L67.6789 13.2595L65.0446 10.6151L29.947 45.8469L27.2008 43.084L24.5602 45.7346L35.7562 56.9671L38.3905 54.3227L32.5813 48.4913Z" fill="#272084"/>
<path d="M21.8513 48.4539L10.6554 59.6926L13.2897 62.337L21.9259 53.6679L30.4875 62.2622L33.1218 59.6178L21.9259 48.379L21.8513 48.4539Z" fill="#272084"/>
<path d="M9.03379 58.0897L2.63434 51.672L0 54.3164L6.39946 60.7341L7.20715 61.5511L13.6004 67.9688L16.2409 65.3244L9.84149 58.9005L9.03379 58.0897Z" fill="#272084"/>
<path d="M35.7601 56.9706L33.1241 59.6167L35.7601 62.2628L38.3961 59.6167L35.7601 56.9706Z" fill="#272084"/>
<path d="M65.0469 5.32452L62.4109 7.97058L65.0469 10.6166L67.6829 7.97058L65.0469 5.32452Z" fill="#272084"/>
<path d="M65.0449 0.0274052L62.4089 2.67346L65.0449 5.31952L67.6808 2.67346L65.0449 0.0274052Z" fill="#272084"/>
<path d="M68.4243 29.4808L43.6285 54.3713L48.8829 59.6458L73.6786 34.7552L68.4243 29.4808Z" fill="#B36F50"/>
<path d="M65.1219 43.3466L57.4424 51.0554L71.3647 65.031L79.0442 57.3222L65.1219 43.3466Z" fill="#6D3D39"/>
<path d="M22.2271 0.0563973L16.9551 5.34851L22.1085 10.5216L27.3804 5.22944L22.2271 0.0563973Z" fill="#B3B3B3"/>
<path d="M27.4418 -0.00235751L22.0557 5.40442L58.6343 42.1229L64.0205 36.7161L27.4418 -0.00235751Z" fill="#B3B3B3"/>
<path d="M22.1718 5.29357L16.1046 11.3839L51.2642 46.6779L57.3313 40.5876L22.1718 5.29357Z" fill="#D7D9D9"/>
<path d="M22.4907 10.9076L19.4594 13.9506L30.2229 24.7553L33.2543 21.7123L22.4907 10.9076Z" fill="white"/>
<path d="M35.6092 24.0814L32.5778 27.1244L35.6092 30.1674L38.6406 27.1244L35.6092 24.0814Z" fill="white"/>
<path d="M49.4187 48.5224L43.6095 54.3538L46.2438 56.9983L57.4398 45.7595L54.8054 43.1151L52.053 45.878L16.9554 10.6462L14.3211 13.2906L49.4187 48.5224Z" fill="#272084"/>
<path d="M60.0741 53.699L68.7103 62.3681L71.3446 59.7237L60.1549 48.485L60.0741 48.4102L48.8782 59.6427L51.5187 62.2933L60.0741 53.699Z" fill="#272084"/>
<path d="M46.2442 56.997L43.6082 59.6431L46.2442 62.2891L48.8802 59.6431L46.2442 56.997Z" fill="#272084"/>
<path d="M16.9505 5.34833L14.3145 7.99438L16.9505 10.6404L19.5865 7.99438L16.9505 5.34833Z" fill="#272084"/>
<path d="M62.5966 35.2942L27.499 0.0623779L24.8647 2.70679L59.9623 37.9386L57.2099 40.6952L59.8504 43.3459L71.0402 32.1071L68.4058 29.4627L62.5966 35.2942Z" fill="#272084"/>
<path d="M62.5593 46.065V46.0713L73.7552 57.3038L76.3896 54.6594L67.7534 45.9902L76.315 37.3959L73.6807 34.7515L62.4847 45.9902L62.5593 46.065Z" fill="#272084"/>
<path d="M72.1585 58.9316L65.7653 65.3555L68.3996 67.9999L74.7928 61.576L75.6068 60.7652L82 54.3475L79.3657 51.6969L72.9662 58.1208L72.1585 58.9316Z" fill="#272084"/>
<path d="M73.6793 29.4586L71.0433 32.1046L73.6793 34.7507L76.3152 32.1046L73.6793 29.4586Z" fill="#272084"/>
<path d="M22.2298 0.0597538L19.5938 2.70581L22.2298 5.35187L24.8658 2.70581L22.2298 0.0597538Z" fill="#272084"/>
<path d="M16.9528 0.0619511L14.3168 2.70801L16.9528 5.35406L19.5888 2.70801L16.9528 0.0619511Z" fill="#272084"/>
</g>
<defs>
<clipPath id="clip0_475_3708">
<rect width="82" height="68" fill="white"/>
</clipPath>
</defs>
</svg>
