<svg width="76" height="68" viewBox="0 0 76 68" fill="none" xmlns="http://www.w3.org/2000/svg">
<g clip-path="url(#clip0_475_4189)">
<path d="M54.9977 6.44287H21.2216V24.5689H54.9977V6.44287Z" fill="#A16246"/>
<path d="M16.8369 4.37305H8.13348V26.6389H16.8369V4.37305Z" fill="#F4BA05"/>
<path d="M67.8739 4.37305H59.1704V26.6389H67.8739V4.37305Z" fill="#F4BA05"/>
<path d="M67.8739 39.0289H59.1704V57.4101H67.8739V39.0289Z" fill="#F4BA05"/>
<path d="M76 57.41H0V65.6458H76V57.41Z" fill="#F4BA05"/>
<path d="M76 28.1038H0V36.3396H76V28.1038Z" fill="#F4BA05"/>
<path d="M54.9977 40.2316H21.2216V55.9379H54.9977V40.2316Z" fill="#A16246"/>
<path d="M45.3442 23.0748H30.6484V41.2009H45.3442V23.0748Z" fill="#F4BA05"/>
<path d="M16.8369 39.0289H8.13348V55.5297H16.8369V39.0289Z" fill="#F4BA05"/>
<path d="M12.6935 4.37305H8.3454V23.9713H12.6935V4.37305Z" fill="#F4E5B5"/>
<path d="M63.5185 4.37305H59.1704V23.9713H63.5185V4.37305Z" fill="#F4E5B5"/>
<path d="M63.5185 40.2316H59.1704V55.865H63.5185V40.2316Z" fill="#F4E5B5"/>
<path d="M12.6935 40.2316H8.3454V55.865H12.6935V40.2316Z" fill="#F4E5B5"/>
<path d="M8.73272 57.6215H4.38464V65.4345H8.73272V57.6215Z" fill="#F4E5B5"/>
<path d="M16.8296 0H8.54999V4.37299H16.8296V0Z" fill="#272084"/>
<path d="M67.6619 0H59.3823V4.37299H67.6619V0Z" fill="#272084"/>
<path d="M72.0465 23.7818V4.4022H67.6619V23.7818H59.3823V4.4022H57.9792V4.37305H16.8369V23.7818H8.55731V4.4022H4.17269V23.7818H0V40.5741H4.16538V55.5298H0V68.0001H76V55.5298H72.0465V40.5741H76V23.7818H72.0465ZM21.2215 8.74604H54.9977V23.7818H49.1662V19.5983H26.9215V23.7818H21.2215V8.74604ZM27.4696 44.8524H49.1662V40.5741H54.9977V55.5298H21.2215V40.5741H26.9215V44.8524H27.4769H27.4696ZM16.8369 55.5298H8.55731V40.5741H16.8369V55.5298ZM71.6154 63.6271H4.38462V59.9027H71.6154V63.6271ZM67.6619 55.5298H59.3823V40.5741H67.6619V55.5298ZM71.6154 36.2011H44.7815V40.4794H31.3062V36.2011H4.38462V28.1548H31.2988V23.9713H44.7742V28.1548H71.6081V36.2011H71.6154Z" fill="#272084"/>
<path d="M40.4189 28.264H35.7931V36.1864H40.4189V28.264Z" fill="#713F20"/>
<path d="M40.3092 8.74597H35.6835V16.6684H40.3092V8.74597Z" fill="#713F20"/>
</g>
<defs>
<clipPath id="clip0_475_4189">
<rect width="76" height="68" fill="white"/>
</clipPath>
</defs>
</svg>
