<svg width="70" height="68" viewBox="0 0 70 68" fill="none" xmlns="http://www.w3.org/2000/svg">
<g clip-path="url(#clip0_475_4213)">
<path d="M67.5374 20.2765H3.69397V34.2445H67.5374V20.2765Z" fill="#F0F6FF"/>
<path d="M62.3843 36.4391H7.20312V65.2125H62.3843V36.4391Z" fill="#D5E3F5"/>
<path opacity="0.5" d="M64.2806 65.2125H35V20.2765H67.5374V34.2384H64.2806V65.2125Z" fill="#94A4BA"/>
<path opacity="0.5" d="M62.3844 40.7853V37.1176H7.77578V40.7853H62.3844Z" fill="#94A4BA"/>
<path d="M16.7705 21.9943H13.0765V33.4499H16.7705V21.9943Z" fill="#F11F54"/>
<path d="M31.1214 3.66772H23.7335V7.33547H31.1214V3.66772Z" fill="#F11F54"/>
<path d="M23.7335 7.33545H20.0396V11.0032H23.7335V7.33545Z" fill="#F11F54"/>
<path d="M27.4275 11.0033H23.7335V14.671H27.4275V11.0033Z" fill="#F11F54"/>
<path d="M38.5092 11.0033H34.8153V14.671H38.5092V11.0033Z" fill="#F11F54"/>
<path d="M34.8153 7.33545H31.1213V11.0032H34.8153V7.33545Z" fill="#F11F54"/>
<path d="M49.591 11.0033H45.8971V14.671H49.591V11.0033Z" fill="#F11F54"/>
<path d="M45.8971 7.33545H38.5093V11.0032H45.8971V7.33545Z" fill="#F11F54"/>
<path d="M45.8972 14.671H27.4275V18.3388H45.8972V14.671Z" fill="#F11F54"/>
<path d="M21.8866 37.0137H18.1926V64.3323H21.8866V37.0137Z" fill="#F11F54"/>
<path d="M58.3026 21.9943H54.6086V33.4499H58.3026V21.9943Z" fill="#F11F54"/>
<path d="M53.9807 37.0137H50.2867V64.3323H53.9807V37.0137Z" fill="#F11F54"/>
<path d="M49.591 18.3265V14.671H45.8971V18.3265H27.4274V14.671H23.7335V18.3265H0V37.1176H4.10642V68H66.0844V37.301H70.0062V18.3265H49.591ZM66.3061 33.6333H62.3843V64.3323H7.80035V33.4499H3.69393V21.9943H66.3061V33.6333Z" fill="#272084"/>
<path d="M23.7335 11.0033H20.0396V14.671H23.7335V11.0033Z" fill="#272084"/>
<path d="M66.3061 33.4498H7.77576V37.1176H66.3061V33.4498Z" fill="#272084"/>
<path d="M20.0396 7.33545H16.3457V11.0032H20.0396V7.33545Z" fill="#272084"/>
<path d="M23.7335 3.66772H20.0396V7.33547H23.7335V3.66772Z" fill="#272084"/>
<path d="M31.1214 0H23.7335V3.66775H31.1214V0Z" fill="#272084"/>
<path d="M45.8971 3.66772H38.5093V7.33547H45.8971V3.66772Z" fill="#272084"/>
<path d="M34.8153 3.66772H31.1213V7.33547H34.8153V3.66772Z" fill="#272084"/>
<path d="M38.5092 7.33545H34.8153V11.0032H38.5092V7.33545Z" fill="#272084"/>
<path d="M49.591 7.33545H45.8971V11.0032H49.591V7.33545Z" fill="#272084"/>
<path d="M53.285 11.0033H49.5911V14.671H53.285V11.0033Z" fill="#272084"/>
</g>
<defs>
<clipPath id="clip0_475_4213">
<rect width="70" height="68" fill="white"/>
</clipPath>
</defs>
</svg>
