<svg width="80" height="57" viewBox="0 0 80 57" fill="none" xmlns="http://www.w3.org/2000/svg">
<g clip-path="url(#clip0_675_5619)">
<path d="M73.1541 42.7919H45.1316V53.0734H41.7086L38.2857 49.6462L34.8628 46.219V42.7919H6.84592V39.3647H3.42297V7.35491L6.84592 3.92773H73.1541V7.35491H76.5771V39.3647L73.1541 42.7919Z" fill="#FFFDF5"/>
<path opacity="0.5" d="M3.42297 39.3642L34.8628 39.4042V42.8085L38.2857 42.7971V46.2185H45.1316V39.4099L73.1541 39.4442V32.3613H76.5771V39.3642L73.1313 42.9799L45.1316 42.7914V53.0729H41.7086L31.4398 42.7914H6.84592L3.42297 39.3642Z" fill="#94A5BA"/>
<path d="M55.4004 25.2091L51.9775 28.4991L45.1316 31.9263L41.7086 35.3535H38.2857L34.8627 31.9263L28.0168 28.4991L24.5939 25.072V11.3633H38.2857V14.7905H41.7086V11.3633H55.4004V25.2091Z" fill="#FF82AA"/>
<path d="M6.84592 3.92773H3.42297V7.35491H6.84592V3.92773Z" fill="#272084"/>
<path d="M6.84592 42.7905V46.2176H34.8628V42.7905H6.84592V39.3633H3.42297V42.7905H6.84592Z" fill="#272084"/>
<path d="M38.2857 46.2188H34.8627V49.6459H38.2857V53.0731H41.7086V49.6459H38.2857V46.2188Z" fill="#272084"/>
<path d="M76.5771 3.92773H73.1541V7.35491H76.5771V3.92773Z" fill="#272084"/>
<path d="M73.1541 42.7905H45.1316V46.2176V53.072H41.7086V56.4991H45.1316H48.5545V46.2176H73.1541V42.7905H76.577V39.3633H73.1541V42.7905Z" fill="#272084"/>
<path d="M73.1541 0.5H6.84589V3.92717H73.1541V0.5Z" fill="#272084"/>
<path d="M3.42295 7.35352H0V39.3633H3.42295V7.35352Z" fill="#272084"/>
<path d="M80 7.35352H76.577V39.3633H80V7.35352Z" fill="#272084"/>
<path d="M34.8627 11.3647V7.9375H31.4398H28.0168V11.3647H31.4398H34.8627Z" fill="#F11F54"/>
<path d="M38.2857 11.3633H34.8627V14.7905H38.2857V11.3633Z" fill="#F11F54"/>
<path d="M41.7086 14.791H38.2856V18.2182H41.7086V14.791Z" fill="#F11F54"/>
<path d="M45.1316 11.3633H41.7086V14.7905H45.1316V11.3633Z" fill="#F11F54"/>
<path d="M28.0168 11.3633H24.5939V14.7905H28.0168V11.3633Z" fill="#F11F54"/>
<path d="M24.5939 18.2182V14.791H21.171V18.2182V21.6454V25.0725H24.5939V21.6454V18.2182Z" fill="#F11F54"/>
<path d="M28.0168 25.0723H24.5939V28.4994H28.0168V25.0723Z" fill="#F11F54"/>
<path d="M55.4004 25.0723H51.9775V28.4994H55.4004V25.0723Z" fill="#F11F54"/>
<path d="M41.7086 35.3535H38.2856V38.7807H41.7086V35.3535Z" fill="#F11F54"/>
<path d="M45.1316 31.9277H41.7086V35.3549H45.1316V31.9277Z" fill="#F11F54"/>
<path d="M51.9775 31.9272V28.5H48.5545H45.1316V31.9272H48.5545H51.9775Z" fill="#F11F54"/>
<path d="M31.4398 28.5H28.0168V31.9272H31.4398H34.8627V28.5H31.4398Z" fill="#F11F54"/>
<path d="M38.2857 31.9277H34.8627V35.3549H38.2857V31.9277Z" fill="#F11F54"/>
<path d="M55.4004 14.7905V25.072H58.8234V14.7905H55.4004V11.3633H51.9775V14.7905H55.4004Z" fill="#F11F54"/>
<path d="M51.9775 11.3647V7.9375H48.5545H45.1316V11.3647H48.5545H51.9775Z" fill="#F11F54"/>
</g>
<defs>
<clipPath id="clip0_675_5619">
<rect width="80" height="56" fill="white" transform="translate(0 0.5)"/>
</clipPath>
</defs>
</svg>
