<svg width="108" height="68" viewBox="0 0 108 68" fill="none" xmlns="http://www.w3.org/2000/svg">
<g clip-path="url(#clip0_479_4265)">
<path d="M31.4454 59.5134L97.3658 57.8907V61.2831L100.751 64.6076H104.615V32.2784L101.23 28.886H31.4454V32.2784H28.0605L28.0662 54.4984H31.4511L31.4454 59.5134Z" fill="#FFFDF5"/>
<path opacity="0.5" d="M31.4512 54.4985L101.23 54.5098V50.4276H104.615V64.6077H100.751L97.3659 61.2832V57.8908L31.4455 59.5135L31.4512 54.4985H28.0663H31.4512Z" fill="#94A5BA"/>
<path d="M104.615 32.2784H108V68H100.751V64.6133H97.3659V61.2831H31.4624V57.8907H28.0775V54.4984H31.4624V57.8907H97.3659V61.2209H100.751V64.6076H104.615V32.2784H101.23V28.886H104.615V32.2784Z" fill="#272084"/>
<path d="M31.4568 28.886H28.0719V32.2784H31.4568V28.886Z" fill="#272084"/>
<path d="M101.23 25.4937H31.4568V28.886H101.23V25.4937Z" fill="#272084"/>
<path d="M28.0719 32.2784H24.687V54.5041H28.0719V32.2784Z" fill="#272084"/>
<path d="M75.3755 45.1355V40.6123H70.8623V45.1355H75.3755Z" fill="#272084"/>
<path d="M61.4186 45.1355V40.6123H56.9054V45.1355H61.4186Z" fill="#272084"/>
<path d="M46.9426 45.1298V40.6067H42.4295V45.1298H46.9426Z" fill="#272084"/>
<path d="M86.8672 42.7608V35.9761H83.4823V42.7608H86.8672Z" fill="#272084"/>
<path d="M90.2521 42.7608V35.9761H86.8672V42.7608H90.2521Z" fill="#272084"/>
<path d="M88.5653 51.123V47.7306H85.1804V51.123H88.5653Z" fill="#272084"/>
<path d="M88.5596 46.2775V34.1781H85.1747V46.2775H88.5596Z" fill="#272084"/>
<path opacity="0.5" d="M28.0775 54.504H31.4624V47.7193H28.0775V54.504Z" fill="#94A5BA"/>
<path d="M85.9983 34.0254L10.6342 32.4027V35.7951L7.24928 39.114H3.38489V6.7847L6.76976 3.39233H85.9983V6.7847H89.3832V29.0104H85.9983V34.0254Z" fill="#FFFDF5"/>
<path opacity="0.5" d="M85.9927 29.0103L6.76976 29.016V24.9338H3.38489V39.1139H7.24928L10.6342 35.7951V32.4027L85.9983 34.0254L85.9927 29.0103H89.3776H85.9927Z" fill="#94A5BA"/>
<path d="M3.38487 6.7847H0V42.5063H7.24927V39.1196H10.6341V35.7951H85.9983V32.4027H89.3832V29.0104H85.9983V32.4027H10.6341V35.7272H7.24927V39.114H3.38487V6.7847H6.76975V3.39233H3.38487V6.7847Z" fill="#272084"/>
<path d="M89.3832 3.39233H85.9983V6.7847H89.3832V3.39233Z" fill="#272084"/>
<path d="M85.9984 0H6.76978V3.39237H85.9984V0Z" fill="#272084"/>
<path d="M92.7681 6.78479H89.3832V29.0105H92.7681V6.78479Z" fill="#272084"/>
<path d="M63.0546 19.6418V15.1187H58.5414V19.6418H63.0546Z" fill="#272084"/>
<path d="M49.0975 19.6418V15.1187H44.5844V19.6418H49.0975Z" fill="#272084"/>
<path d="M34.616 19.6418V15.1187H30.1028V19.6418H34.616Z" fill="#272084"/>
<path opacity="0.5" d="M89.3663 22.2257H85.9814V29.0104H89.3663V22.2257Z" fill="#94A5BA"/>
</g>
<defs>
<clipPath id="clip0_479_4265">
<rect width="108" height="68" fill="white"/>
</clipPath>
</defs>
</svg>
