<svg width="240" height="120" viewBox="0 0 240 120" fill="none" xmlns="http://www.w3.org/2000/svg">
<path d="M6 4H4V6H6V4Z" fill="#272084"/>
<path d="M6 2V4H8H10V2H8H6Z" fill="#272084"/>
<path d="M16 0H14H12H10V2H12H14H16H18V0H16Z" fill="#272084"/>
<path d="M2 8V10H4V8V6H2V8Z" fill="#272084"/>
<path d="M0 12V14V16V18H2V16V14V12V10H0V12Z" fill="#272084"/>
<path d="M236 4H234V6H236V4Z" fill="#272084"/>
<path d="M234 2V4H232H230V2H232H234Z" fill="#272084"/>
<path d="M224 0H226H228H230V2H228H226H224H222V0H224Z" fill="#272084"/>
<path d="M238 8V10H236V8V6H238V8Z" fill="#272084"/>
<path d="M240 12V14V16V18H238V16V14V12V10H240V12Z" fill="#272084"/>
<path d="M6 114H4V116H6V114Z" fill="#272084"/>
<path d="M6 118V116H8H10V118H8H6Z" fill="#272084"/>
<path d="M16 120H14H12H10V118H12H14H16H18V120H16Z" fill="#272084"/>
<path d="M2 112V110H4V112V114H2V112Z" fill="#272084"/>
<path d="M0 108V106V104V102H2V104V106V108V110H0V108Z" fill="#272084"/>
<path d="M236 114H234V116H236V114Z" fill="#272084"/>
<path d="M234 118V116H232H230V118H232H234Z" fill="#272084"/>
<path d="M224 120H226H228H230V118H228H226H224H222V120H224Z" fill="#272084"/>
<path d="M238 112V110H236V112V114H238V112Z" fill="#272084"/>
<path d="M240 108V106V104V102H238V104V106V108V110H240V108Z" fill="#272084"/>
<path d="M222 0H16V2H222V0Z" fill="#272084"/>
<path d="M222 118H16V120H222V118Z" fill="#272084"/>
<path d="M2 14.87H0V102H2V14.87Z" fill="#272084"/>
<path d="M240 14.87H238V102H240V14.87Z" fill="#272084"/>
</svg>
